<svg width="21" height="20" viewBox="0 0 21 20" fill="none" xmlns="http://www.w3.org/2000/svg">
<g clip-path="url(#clip0_799_5415)">
<path d="M15.25 8C15.25 10.7812 12.3125 13 8.75 13C7.46875 13 6.25 12.7188 5.25 12.2188C4.5625 12.625 3.625 13 2.5 13C2.375 13 2.3125 12.9688 2.25 12.875C2.21875 12.7812 2.25 12.6562 2.3125 12.5938C2.3125 12.5938 3 11.8438 3.4375 10.875C2.6875 10.0625 2.25 9.09375 2.25 8C2.25 5.25 5.15625 3 8.75 3C12.3125 3 15.25 5.25 15.25 8ZM19.0625 14.875C19.4688 15.8438 20.1562 16.5938 20.1562 16.5938C20.25 16.6562 20.25 16.7812 20.2188 16.875C20.1875 16.9688 20.0938 17 20 17C18.8438 17 17.9062 16.625 17.2188 16.2188C16.2188 16.7188 15.0312 17 13.75 17C11.0312 17 8.71875 15.75 7.75 13.9688C8.0625 14 8.40625 14 8.75 14C12.875 14 16.25 11.3125 16.25 8C16.25 7.8125 16.2188 7.59375 16.1875 7.375C18.5625 8.125 20.25 9.9375 20.25 12C20.25 13.0938 19.7812 14.0625 19.0625 14.875Z" fill="#006FFD"/>
</g>
<defs>
<clipPath id="clip0_799_5415">
<rect width="20" height="20" fill="white" transform="translate(0.875)"/>
</clipPath>
</defs>
</svg>
