<svg width="21" height="20" viewBox="0 0 21 20" fill="none" xmlns="http://www.w3.org/2000/svg">
<g clip-path="url(#clip0_748_2274)">
<path d="M9.75 6.65625C9.8125 6.59375 9.90625 6.5625 10 6.5625C10.0625 6.5625 10.1562 6.59375 10.2188 6.65625L16 11.375V16.5C16 16.7812 15.75 17 15.5 17H11.9688C11.7188 17 11.4688 16.7812 11.4688 16.5V13.5C11.4688 13.25 11.25 13 10.9688 13H8.96875C8.71875 13 8.46875 13.25 8.46875 13.5V16.5C8.46875 16.7812 8.25 17 8 17H4.5C4.21875 17 4 16.7812 4 16.5V11.4062L9.75 6.65625ZM18.8438 9.875C18.9375 9.9375 19 10.0625 19 10.1562C19 10.25 18.9688 10.3438 18.9062 10.4062L18.0938 11.375C18.0312 11.4688 17.9375 11.5 17.8125 11.5C17.7188 11.5 17.625 11.4688 17.5625 11.4062L10.2188 5.375C10.1562 5.3125 10.0625 5.28125 10 5.28125C9.90625 5.28125 9.8125 5.3125 9.75 5.375L2.40625 11.4062C2.34375 11.4688 2.25 11.5 2.15625 11.5C2.03125 11.5 1.9375 11.4688 1.875 11.375L1.0625 10.4062C1.03125 10.3438 0.96875 10.25 0.96875 10.1562C0.96875 10.0625 1.03125 9.9375 1.125 9.875L9.03125 3.34375C9.28125 3.15625 9.625 3.03125 10 3.03125C10.3438 3.03125 10.6875 3.15625 10.9375 3.34375L13.75 5.65625V3.40625C13.75 3.1875 13.9062 3.03125 14.125 3.03125H15.875C16.0625 3.03125 16.25 3.1875 16.25 3.40625V7.71875L18.8438 9.875Z" fill="#8CBEFF"/>
</g>
<defs>
<clipPath id="clip0_748_2274">
<rect width="20" height="20" fill="white" transform="translate(0.375)"/>
</clipPath>
</defs>
</svg>
