<svg width="35" height="35" viewBox="0 0 35 35" fill="none" xmlns="http://www.w3.org/2000/svg">
<rect width="35" height="35" rx="17.5" fill="#006FFD"/>
<path fill-rule="evenodd" clip-rule="evenodd" d="M4.24219 17.1541C6.23082 13.3809 11.6664 7.64672 17.4998 10.363C23.4657 7.34444 28.7687 13.3809 30.7573 17.1541C28.7687 20.1727 23.3331 25.4545 17.4998 25.4545C11.6664 25.4545 6.23082 20.1727 4.24219 17.1541ZM7.76207 16.8242C9.81965 16.0979 13.6438 15.079 17.4998 15.079C21.3093 15.079 25.0897 16.0744 27.1645 16.7986C27.4675 16.9037 27.4502 17.3506 27.1446 17.446L27.1281 17.4516C25.1229 18.081 21.4638 19.2292 17.4998 19.2292C13.4695 19.2292 9.75535 18.1052 7.77401 17.4495C7.47704 17.3513 7.46709 16.9279 7.76141 16.8242" fill="white"/>
</svg>
