<svg width="20" height="12" viewBox="0 0 20 12" fill="none" xmlns="http://www.w3.org/2000/svg">
<path fill-rule="evenodd" clip-rule="evenodd" d="M0 5.73913C1.5 2.89304 5.6 -1.43218 10 0.61669C14.5 -1.66018 18.5 2.89304 20 5.73913C18.5 8.016 14.4 12 10 12C5.6 12 1.5 8.016 0 5.73913ZM2.655 5.49026C4.207 4.94243 7.0915 4.17391 10 4.17391C12.8735 4.17391 15.725 4.92469 17.29 5.47095C17.5185 5.55026 17.5055 5.8873 17.275 5.9593L17.2625 5.96347C15.75 6.43826 12.99 7.30434 10 7.30434C6.96 7.30434 4.1585 6.45652 2.664 5.96191C2.44 5.88782 2.4325 5.56852 2.6545 5.49026" fill="#006FFD"/>
</svg>
