<svg width="33" height="32" viewBox="0 0 33 32" fill="none" xmlns="http://www.w3.org/2000/svg">
<rect x="1.8335" y="1" width="30" height="30" rx="15" stroke="#006FFD" stroke-width="2"/>
<path d="M18.896 16L22.021 19.1562C22.4272 19.5312 22.4272 20.1562 22.021 20.5312L21.3335 21.2188C20.9585 21.625 20.3335 21.625 19.9585 21.2188L16.8335 18.0938L13.6772 21.2188C13.3022 21.625 12.6772 21.625 12.3022 21.2188L11.6147 20.5312C11.2085 20.1562 11.2085 19.5312 11.6147 19.1562L14.7397 16L11.6147 12.875C11.2085 12.5 11.2085 11.875 11.6147 11.5L12.3022 10.8125C12.6772 10.4062 13.3022 10.4062 13.6772 10.8125L16.8335 13.9375L19.9585 10.8125C20.3335 10.4062 20.9585 10.4062 21.3335 10.8125L22.021 11.5C22.4272 11.875 22.4272 12.5 22.021 12.875L18.896 16Z" fill="#006FFD"/>
</svg>
